<svg width="49" height="63" viewBox="0 0 49 63" fill="none" xmlns="http://www.w3.org/2000/svg">
<path d="M7.75 35.6875H9.25398C9.61518 31.7611 11.4303 28.1113 14.3433 25.454C17.2563 22.7966 21.057 21.3235 25 21.3235C28.943 21.3235 32.7437 22.7966 35.6567 25.454C38.5697 28.1113 40.3848 31.7611 40.746 35.6875H42.25C42.6312 35.6875 42.9969 35.8389 43.2665 36.1085C43.536 36.3781 43.6875 36.7437 43.6875 37.125C43.6812 40.5436 42.7404 43.8954 40.9668 46.8179C39.1933 49.7405 36.6545 52.1226 33.625 53.7066V54.375C33.625 55.1375 33.3221 55.8688 32.7829 56.4079C32.2438 56.9471 31.5125 57.25 30.75 57.25H19.25C18.4875 57.25 17.7562 56.9471 17.2171 56.4079C16.6779 55.8688 16.375 55.1375 16.375 54.375V53.7066C13.3455 52.1226 10.8067 49.7405 9.03317 46.8179C7.25962 43.8954 6.31882 40.5436 6.3125 37.125C6.3125 36.7437 6.46395 36.3781 6.73353 36.1085C7.00312 35.8389 7.36875 35.6875 7.75 35.6875ZM12.1452 35.6875H21.3847C19.6419 33.0728 17.0052 31.1836 13.969 30.3741C12.9763 31.9889 12.3534 33.8034 12.1452 35.6875ZM16.8278 27.1038C16.4984 27.3733 16.1827 27.6579 15.8809 27.9573C19.7076 29.3035 22.8698 32.07 24.7125 35.6839H30.0133C29.1148 33.1654 27.4608 30.9858 25.277 29.4427C23.0933 27.8996 20.4864 27.0684 17.8125 27.0625C17.4837 27.0625 17.1548 27.0787 16.8278 27.1038ZM25 24.1875C23.8465 24.1885 22.6983 24.3438 21.5859 24.6493C24.2948 25.3213 26.7788 26.6955 28.7873 28.6334C30.7959 30.5712 32.2581 33.0044 33.0266 35.6875H37.8548C37.4983 32.5265 35.9909 29.6073 33.6201 27.4864C31.2494 25.3655 28.181 24.1913 25 24.1875ZM18.4127 51.5C18.6634 51.6152 18.8757 51.8001 19.0242 52.0327C19.1727 52.2653 19.2511 52.5358 19.25 52.8117V54.375H30.75V52.8117C30.7489 52.5358 30.8273 52.2653 30.9758 52.0327C31.1243 51.8001 31.3366 51.6152 31.5873 51.5C34.1153 50.3367 36.2929 48.5289 37.9014 46.2581C39.5099 43.9872 40.4928 41.3332 40.7514 38.5625H9.25398C9.5121 41.3327 10.4942 43.9863 12.1017 46.2571C13.7092 48.5279 15.8857 50.336 18.4127 51.5Z" fill="#FD7E4B"/>
<path d="M0.5 6C1.5 7 5.5 11 5 14C4.5 17 8 22 9 22.5" stroke="#FD7E4B"/>
<path d="M48.5552 6.19434C47.5552 7.19434 43.5552 11.1943 44.0552 14.1943C44.5552 17.1943 41.0552 22.1943 40.0552 22.6943" stroke="#FD7E4B"/>
<path d="M7.12109 3.21729C7.84962 4.42941 10.7637 9.27791 9.55317 12.068C8.34262 14.8581 10.5298 20.556 11.3792 21.283" stroke="#FD7E4B"/>
<path d="M41.9341 3.41162C41.2056 4.62375 38.2914 9.47225 39.502 12.2623C40.7126 15.0524 38.5254 20.7503 37.676 21.4773" stroke="#FD7E4B"/>
<path d="M14.126 1.80566C14.6986 3.09876 16.9891 8.27113 15.442 10.8896C13.8949 13.5081 15.3588 19.4332 16.1115 20.2599" stroke="#FD7E4B"/>
<path d="M19.9438 1C20.5165 2.29309 22.807 7.46547 21.2599 10.0839C19.7128 12.7024 21.1766 18.6275 21.9294 19.4542" stroke="#FD7E4B"/>
<path d="M34.9292 2C34.3566 3.29309 32.066 8.46547 33.6132 11.0839C35.1603 13.7024 33.6964 19.6275 32.9437 20.4542" stroke="#FD7E4B"/>
<path d="M29.9292 1C29.3566 2.29309 27.066 7.46547 28.6132 10.0839C30.1603 12.7024 28.6964 18.6275 27.9437 19.4542" stroke="#FD7E4B"/>
</svg>
