<svg width="56" height="56" viewBox="0 0 56 56" fill="none" xmlns="http://www.w3.org/2000/svg">
<path d="M24.7254 2.64914L23.6555 6.21739C25.0765 5.92733 26.5455 5.77639 28.0513 5.77639C29.197 5.77639 30.3226 5.86608 31.4211 6.03627L30.3924 2.64893H24.7254V2.64914ZM28.0511 7.99135C17.1544 7.99135 8.34277 16.7993 8.34277 27.6959C8.34277 38.5923 17.1544 47.4004 28.0511 47.4004C38.9474 47.4004 47.7555 38.5924 47.7555 27.6958C47.7555 16.7992 38.9475 7.99113 28.0509 7.99113L28.0511 7.99135ZM28.0511 12.5509C36.4163 12.5509 43.1959 19.3305 43.1959 27.696C43.1959 36.0612 36.4163 42.8445 28.0509 42.8445C19.6854 42.8445 12.9025 36.0612 12.9025 27.696C12.9025 19.3305 19.6854 12.5509 28.0509 12.5509H28.0511ZM28.0474 16.8097C22.0362 16.8097 17.1614 21.6813 17.1614 27.6925C17.1614 33.7038 22.0362 38.5753 28.0474 38.5753C34.0587 38.5753 38.9303 33.7038 38.9303 27.6925C38.9303 21.6813 34.0587 16.8097 28.0474 16.8097ZM28.0509 21.1505C31.666 21.1505 34.5962 24.0806 34.5962 27.6959C34.5962 31.311 31.666 34.2412 28.0508 34.2412C24.4354 34.2412 21.5053 31.3111 21.5053 27.6958C21.5053 24.0805 24.4354 21.1503 28.0507 21.1503L28.0509 21.1505ZM28.0509 24.5308C26.3017 24.5308 24.8824 25.9469 24.8824 27.6961C24.8824 29.445 26.3017 30.8645 28.0509 30.8645C29.7999 30.8645 31.2158 29.4451 31.2158 27.6959C31.2158 25.947 29.8 24.5309 28.0508 24.5309L28.0509 24.5308ZM12.5675 43.2032L9.52205 53.3614H14.6491L16.8672 46.5459C15.3015 45.6135 13.8572 44.4907 12.5675 43.2032ZM42.8849 43.8253C41.5686 45.0358 40.1098 46.0814 38.5406 46.939L40.646 53.3615H45.7765L42.8849 43.8253ZM24.8348 49.3794V53.3614H30.5323V49.4753C29.7085 49.5685 28.88 49.6152 28.0509 49.6153C26.9583 49.6153 25.8842 49.5344 24.8344 49.3795L24.8348 49.3794Z" fill="#C25124"/>
</svg>
