<svg width="52" height="52" viewBox="0 0 52 52" fill="none" xmlns="http://www.w3.org/2000/svg">
<path d="M8.66924 22.1934C8.05174 22.4249 7.41799 22.0268 7.12143 21.4174C6.82487 20.804 6.85331 20.0199 7.38549 19.5405C7.38549 19.5405 14.9133 13.4509 15.6527 12.9552C16.3921 12.4637 17.6027 12.3824 18.1877 13.2559C18.8539 14.243 18.6549 15.0352 17.4158 15.9371C16.1808 16.8349 8.66924 22.1934 8.66924 22.1934Z" fill="#FDBEA5"/>
<path d="M9.01079 23.1033C9.08798 23.0749 9.16517 23.0343 9.23423 22.9855C9.23423 22.9855 16.7539 17.6271 17.993 16.7252C19.6424 15.5268 19.9795 14.174 19.0005 12.7155C18.5333 12.0168 17.7533 11.6187 16.8636 11.6187C16.2461 11.6187 15.6245 11.8055 15.1127 12.1468C14.357 12.6505 7.54423 18.1593 6.73173 18.8174C5.91923 19.5487 5.72423 20.7633 6.24423 21.8399C6.65454 22.6849 7.46298 23.2333 8.29985 23.2333C8.5436 23.2333 8.78329 23.1887 9.01079 23.1033ZM17.3836 13.7962C17.6558 14.2024 17.8183 14.4421 16.8474 15.149C15.722 15.9655 9.3886 20.479 8.27141 21.2793C8.20235 21.2549 8.08048 21.1615 7.99923 20.9908C7.88142 20.7512 7.85704 20.4221 7.99923 20.2962C11.0136 17.8587 15.6814 14.109 16.1974 13.7637C16.3842 13.6377 16.6361 13.5605 16.8677 13.5605C17.2252 13.5605 17.343 13.7393 17.3836 13.7962Z" fill="#BA3C09" fill-opacity="0.6"/>
<path d="M25.4678 27.8728H19.89V29.9081H25.4678V27.8728Z" fill="#FDBEA5"/>
<path d="M25.4678 31.7607H19.89C19.6469 31.7607 19.4062 31.7127 19.1817 31.6196C18.9572 31.5264 18.7532 31.3899 18.5815 31.2178C18.4098 31.0458 18.2738 30.8415 18.1811 30.6168C18.0884 30.392 18.041 30.1512 18.0416 29.9082V27.8729C18.0416 26.8491 18.8703 26.0244 19.89 26.0244H25.4678C26.4916 26.0244 27.3203 26.8532 27.3203 27.8729V29.9082C27.3203 30.9319 26.4916 31.7607 25.4678 31.7607Z" fill="#BA3C09" fill-opacity="0.6"/>
<path d="M23.2173 30.741H22.4698V42.3678H23.2173V30.741Z" fill="#FDBEA5"/>
<path d="M23.2174 43.5702H22.4699C21.8037 43.5702 21.2674 43.034 21.2674 42.3677V30.7408C21.2674 30.4219 21.3941 30.116 21.6196 29.8905C21.8451 29.665 22.151 29.5383 22.4699 29.5383H23.2174C23.8837 29.5383 24.4199 30.0746 24.4199 30.7408V42.3677C24.4199 42.6866 24.2932 42.9925 24.0677 43.218C23.8422 43.4435 23.5363 43.5702 23.2174 43.5702Z" fill="#BA3C09" fill-opacity="0.6"/>
<path d="M22.9205 50.2166C22.7925 50.2166 22.6657 50.1914 22.5474 50.1424C22.4291 50.0934 22.3216 50.0216 22.2311 49.931C22.1405 49.8405 22.0687 49.733 22.0197 49.6147C21.9707 49.4964 21.9455 49.3696 21.9455 49.2416V42.7416C21.9455 42.483 22.0482 42.235 22.2311 42.0522C22.4139 41.8693 22.6619 41.7666 22.9205 41.7666C23.1791 41.7666 23.4271 41.8693 23.6099 42.0522C23.7928 42.235 23.8955 42.483 23.8955 42.7416V49.2416C23.8914 49.7779 23.4568 50.2166 22.9205 50.2166Z" fill="#BA3C09" fill-opacity="0.6"/>
<path d="M21.5654 31.1033L20.7578 30.6755L14.0961 43.2514L14.9037 43.6792L21.5654 31.1033Z" fill="#FDBEA5"/>
<path d="M14.9135 44.8824C14.7185 44.8824 14.5276 44.8337 14.3488 44.7402L13.5404 44.3137C13.259 44.1641 13.0484 43.909 12.9548 43.6044C12.8611 43.2998 12.892 42.9705 13.0407 42.6887L19.691 30.1112C20.0038 29.5262 20.731 29.3027 21.312 29.6115L22.1204 30.0421C22.4048 30.1884 22.616 30.4443 22.7095 30.749C22.8029 31.0537 22.7745 31.3827 22.6241 31.663L15.9698 44.2446C15.8195 44.529 15.5676 44.7362 15.2629 44.8337C15.1491 44.8662 15.0313 44.8824 14.9135 44.8824Z" fill="#BA3C09" fill-opacity="0.6"/>
<path d="M14.373 43.9155L10.6559 50.9477Z" fill="#FDBEA5"/>
<path d="M10.656 51.9229C10.488 51.923 10.3228 51.8796 10.1765 51.7969C10.0303 51.7143 9.90785 51.5953 9.82118 51.4514C9.7345 51.3074 9.68652 51.1436 9.68188 50.9756C9.67725 50.8077 9.71612 50.6414 9.79473 50.4929L13.5119 43.4607C13.6332 43.233 13.8397 43.0625 14.0863 42.9863C14.3329 42.9102 14.5996 42.9347 14.8282 43.0545C15.0566 43.1752 15.2277 43.3817 15.3038 43.6285C15.38 43.8753 15.355 44.1423 15.2344 44.3707L11.5172 51.4029C11.3425 51.732 11.0054 51.9229 10.656 51.9229Z" fill="#BA3C09" fill-opacity="0.6"/>
<path d="M32.2495 42.8106L24.8639 30.6462L24.0823 31.1203L31.4679 43.2851L32.2495 42.8106Z" fill="#FDBEA5"/>
<path d="M31.4679 44.4845C31.3704 44.4845 31.2769 44.4723 31.1835 44.452C30.8748 44.3748 30.6066 44.1798 30.4401 43.9076L23.0504 31.7445C22.8838 31.4682 22.8351 31.1473 22.9123 30.8345C22.9895 30.5257 23.1844 30.2576 23.4566 30.0911L24.2407 29.6157C24.8054 29.2704 25.5448 29.4532 25.8901 30.0179L33.2798 42.1811C33.6251 42.7457 33.4423 43.4851 32.8776 43.8304L32.0976 44.3057C31.9026 44.4236 31.6873 44.4845 31.4679 44.4845Z" fill="#BA3C09" fill-opacity="0.6"/>
<path d="M32.0204 43.481L36.1479 50.2816Z" fill="#FDBEA5"/>
<path d="M36.1523 51.2525C35.8232 51.2525 35.5023 51.0859 35.3195 50.7853L31.192 43.9847C31.1253 43.8756 31.0809 43.7545 31.0611 43.6282C31.0414 43.502 31.0468 43.3731 31.077 43.2489C31.1072 43.1247 31.1616 43.0077 31.2371 42.9046C31.3126 42.8015 31.4077 42.7144 31.517 42.6481C31.976 42.3678 32.5732 42.514 32.8535 42.9731L36.981 49.7697C37.0477 49.8787 37.0922 49.9998 37.1119 50.1261C37.1316 50.2523 37.1262 50.3812 37.096 50.5054C37.0659 50.6296 37.0114 50.7466 36.9359 50.8497C36.8604 50.9528 36.7653 51.04 36.656 51.1062C36.4976 51.2078 36.3229 51.2525 36.1523 51.2525Z" fill="#BA3C09" fill-opacity="0.6"/>
<path d="M12.9429 30.3671C11.0701 31.0374 9.19322 29.8105 8.33197 27.9621C7.47479 26.1096 7.5926 23.7412 9.2176 22.3315L24.9801 10.9199L31.147 22.3599L12.9429 30.3671Z" fill="#BA3C09" fill-opacity="0.6"/>
<path d="M13.3858 31.3665L31.5858 23.3593C31.7238 23.2984 31.8477 23.2096 31.9497 23.0984C32.0517 22.9873 32.1296 22.8562 32.1784 22.7135C32.2273 22.5707 32.246 22.4194 32.2336 22.2691C32.2211 22.1188 32.1776 21.9727 32.1058 21.84L25.939 10.3959C25.7887 10.1196 25.5287 9.92058 25.2199 9.84745C24.9152 9.77839 24.5902 9.84339 24.3343 10.0303L8.57585 21.4418L8.50272 21.5028C6.3496 23.3675 6.36991 26.3209 7.34085 28.4171C8.25085 30.3753 10.0343 31.6428 11.8908 31.6428C12.3743 31.6468 12.8496 31.5615 13.3858 31.3665ZM24.6105 12.5368L29.6237 21.8359L12.5774 29.3393C11.383 29.77 9.99772 28.9453 9.32741 27.499C8.70585 26.1584 8.64897 24.3059 9.90428 23.1846L24.6105 12.5368Z" fill="#BA3C09" fill-opacity="0.6"/>
<path d="M6.9225 30.6639C6.17094 30.936 5.41937 30.4404 5.07406 29.701C4.72875 28.9576 4.7775 28.007 5.43156 27.4423L11.7487 22.8679L14.2188 27.4545L6.9225 30.6639Z" fill="#BA3C09" fill-opacity="0.6"/>
<path d="M7.09721 31.066L14.3975 27.8566C14.5113 27.8079 14.5966 27.7144 14.6372 27.5966C14.6778 27.4829 14.6656 27.3529 14.6088 27.2472L12.1388 22.6566C12.1094 22.6015 12.0685 22.5534 12.0189 22.5155C11.9693 22.4776 11.9121 22.4508 11.8512 22.4369C11.7904 22.423 11.7272 22.4224 11.6661 22.4351C11.6049 22.4478 11.5472 22.4734 11.4969 22.5104L5.14721 27.1091C4.28596 27.8566 4.29409 29.0429 4.68002 29.8797C5.04159 30.6679 5.76065 31.1757 6.50409 31.1757C6.69503 31.1797 6.88596 31.1472 7.09721 31.066ZM13.6094 27.2432L6.77221 30.2535C6.29284 30.4282 5.74034 30.0951 5.47221 29.5141C5.22034 28.9697 5.20002 28.2222 5.68752 27.7957L11.6025 23.5138L13.6094 27.2432Z" fill="#BA3C09" fill-opacity="0.6"/>
<path d="M16.9489 28.9087C14.8161 29.6724 12.6792 28.279 11.7042 26.1706C10.7292 24.0621 10.8633 21.3687 12.7158 19.764L30.6476 6.76807L37.6636 19.7924L16.9489 28.9087Z" fill="#FD7F4C"/>
<path d="M17.3673 30.0787C17.3957 30.0706 17.4201 30.0584 17.4485 30.0462L38.1673 20.9299C38.4841 20.7918 38.7279 20.5277 38.8416 20.1987C38.9554 19.8696 38.927 19.5081 38.7604 19.2034L31.7445 6.17494C31.5738 5.85806 31.2773 5.63462 30.9279 5.55337C30.5785 5.47619 30.2129 5.54931 29.9204 5.76056L11.9845 18.7524C11.956 18.7727 11.9235 18.7971 11.8991 18.8215C9.44946 20.9462 9.46977 24.3059 10.5748 26.6906C11.6107 28.9209 13.642 30.3631 15.7504 30.3631C16.2948 30.3631 16.8432 30.2656 17.3673 30.0787ZM30.2251 8.60837L35.9288 19.1952L16.4898 27.7468C15.137 28.2059 13.5851 27.2674 12.8295 25.6424C12.147 24.1637 12.0616 22.0065 13.4876 20.7309L30.2251 8.60837Z" fill="#BA3C09" fill-opacity="0.6"/>
<path d="M40.4705 10.1482C42.579 14.6942 41.539 19.6504 38.159 21.2145C34.7749 22.7826 30.3265 20.3654 28.2221 15.8195C26.1177 11.2736 27.1537 6.32137 30.5337 4.75324C33.9177 3.18918 38.3662 5.60231 40.4705 10.1482Z" fill="#BA3C09" fill-opacity="0.6"/>
<path d="M38.6627 22.3032C42.6358 20.4588 43.9358 14.7835 41.5552 9.6485C39.7392 5.72412 36.1927 3.0835 32.7355 3.0835C31.7808 3.0835 30.8708 3.28256 30.0258 3.67256C26.0527 5.51287 24.7567 11.1882 27.1333 16.3272C28.9574 20.2516 32.4999 22.8882 35.9571 22.8882C36.9077 22.8882 37.8217 22.6932 38.6627 22.3032ZM39.3858 10.6519C41.2099 14.5926 40.4339 18.8419 37.6552 20.1297C37.1311 20.3735 36.5583 20.4954 35.953 20.4954C33.4139 20.4954 30.7408 18.4154 29.3027 15.3157C27.4786 11.3751 28.2546 7.12568 31.0292 5.83787C31.5533 5.59412 32.1261 5.47225 32.7314 5.47225C35.2786 5.47225 37.9517 7.55225 39.3858 10.6519Z" fill="#BA3C09" fill-opacity="0.6"/>
<path d="M38.7156 22.3276L44.1593 19.5976C44.3067 19.523 44.4379 19.42 44.5452 19.2945C44.6526 19.169 44.7341 19.0235 44.785 18.8663C44.8865 18.5454 44.8581 18.2042 44.7037 17.9076L35.9693 1.24322C35.8068 0.926346 35.5143 0.698846 35.1731 0.613534C34.8278 0.524159 34.4622 0.589159 34.1697 0.788221L29.8309 3.72135C29.5853 3.88572 29.4069 4.13269 29.3278 4.41743C29.2488 4.70218 29.2745 5.00581 29.4003 5.27322L37.0297 21.7385C37.1718 22.0432 37.4278 22.2788 37.7487 22.3885C37.8828 22.4373 38.0209 22.4576 38.159 22.4576C38.35 22.4617 38.5409 22.417 38.7156 22.3276ZM34.4134 3.63197L41.9128 17.9401L38.7481 19.5285L32.1059 5.19197L34.4134 3.63197Z" fill="#BA3C09" fill-opacity="0.6"/>
<path d="M45.2076 7.4343C47.3973 12.163 46.3207 17.3184 42.8026 18.9474C39.2845 20.5765 34.6573 18.0618 32.4676 13.333C30.2779 8.60836 31.3545 3.45305 34.8685 1.82399C38.3907 0.190862 43.0179 2.70149 45.2076 7.4343Z" fill="#FD7E4B" fill-opacity="0.7"/>
<path d="M43.3264 20.0768C47.462 18.1593 48.8107 12.2525 46.3367 6.91027C44.4476 2.8234 40.7589 0.0771484 37.1636 0.0771484C36.1723 0.0771484 35.2257 0.284336 34.3482 0.690586C32.2845 1.64934 30.8504 3.59121 30.3142 6.15871C29.8064 8.59215 30.172 11.3262 31.342 13.8531C33.2311 17.94 36.9157 20.6862 40.5111 20.6862C41.5023 20.6862 42.4489 20.479 43.3264 20.0768ZM44.0779 7.95434C45.9751 12.0493 45.1707 16.4734 42.2823 17.814C41.7379 18.0659 41.1407 18.1959 40.5151 18.1959C37.8704 18.1959 35.0917 16.0306 33.6007 12.805C32.6501 10.7615 32.3495 8.57996 32.7517 6.66652C33.1214 4.88715 34.0639 3.56684 35.3964 2.94527C35.952 2.69077 36.5565 2.56045 37.1676 2.5634C39.8082 2.56746 42.587 4.73277 44.0779 7.95434Z" fill="#BA3C09" fill-opacity="0.6"/>
<path fill-rule="evenodd" clip-rule="evenodd" d="M41.4292 8.72632H41.5185C42.6195 8.78726 42.9282 11.0623 43.0501 11.8423C43.2654 13.2357 43.111 14.8038 42.1076 15.8763C41.7542 16.2541 41.0513 16.6279 40.5598 16.2866C39.8895 15.8276 40.4867 15.1857 40.7548 14.7023C41.4698 13.3901 41.356 11.7569 40.8685 10.3879C40.6654 9.82319 40.6126 8.75476 41.4292 8.72632Z" fill="#FDBEA5"/>
<path d="M8.70625 18.59C8.83219 19.2563 8.66969 19.6097 9.10031 20.1825C9.33594 20.4994 9.60813 20.8 9.94531 21.0072C9.85187 21.125 9.72594 21.1981 9.61219 21.3038C9.31563 21.5678 9.00281 21.8847 8.63312 22.0391C8.03594 22.291 7.39 22.2219 7.07719 21.5719C6.91062 21.2266 6.85375 20.6985 6.89844 20.3166C6.9675 19.7316 7.70281 19.2156 8.14969 18.9028C8.24719 18.8256 8.59656 18.5616 8.70625 18.59Z" fill="#BA3C09" fill-opacity="0.6"/>
<path d="M8.80357 22.4373C9.18951 22.2748 9.51045 21.9863 9.79076 21.7304L9.90857 21.6248C9.94107 21.5963 9.97763 21.5679 10.0101 21.5435C10.0954 21.4745 10.197 21.3932 10.2904 21.2795C10.3676 21.182 10.4001 21.056 10.3798 20.9301C10.3554 20.8082 10.2823 20.6985 10.1767 20.6335C9.87607 20.4507 9.63232 20.1541 9.45763 19.9185C9.24638 19.6382 9.2342 19.4554 9.21389 19.1263C9.2017 18.9435 9.18951 18.7445 9.14482 18.5129C9.11232 18.3463 8.98232 18.2082 8.81576 18.1676C8.58013 18.1107 8.3242 18.2366 7.9017 18.5413C7.40201 18.8948 6.56107 19.4838 6.46763 20.2638C6.41888 20.6782 6.46763 21.2998 6.68701 21.7588C6.94701 22.2991 7.43045 22.612 8.01951 22.612C8.27138 22.6038 8.53545 22.547 8.80357 22.4373ZM8.75076 20.4426C8.88482 20.6213 9.05545 20.8326 9.25857 21.0235L9.19763 21.0763C8.95795 21.2957 8.71014 21.5191 8.46232 21.6248C8.01545 21.8116 7.64982 21.7426 7.47514 21.3688C7.35732 21.121 7.29638 20.6863 7.33701 20.3573C7.37763 19.9998 7.95451 19.5651 8.34045 19.2929C8.36482 19.6423 8.41764 20.0038 8.75076 20.4426Z" fill="#BA3C09" fill-opacity="0.6"/>
</svg>
